<?xml version="1.0" encoding="utf-8"?>
<!-- Generator: Adobe Illustrator 21.0.2, SVG Export Plug-In . SVG Version: 6.00 Build 0)  -->
<!DOCTYPE svg PUBLIC "-//W3C//DTD SVG 1.1//EN" "http://www.w3.org/Graphics/SVG/1.1/DTD/svg11.dtd">
<svg version="1.1" id="Camada_1" xmlns="http://www.w3.org/2000/svg" xmlns:xlink="http://www.w3.org/1999/xlink" x="0px" y="0px"
	 viewBox="0 0 176.5 28.5" enable-background="new 0 0 176.5 28.5" xml:space="preserve">
<g>
	<path fill="#FFFFFF" d="M1.7,8.2c1.5,1.6,3.3,2.7,5.2,3.6c2.1,1,3.6,2.7,4.9,4.6c0.1,0,0.2-0.1,0.2-0.1c2.5-5.2,7-8.2,12.1-10.4
		c3.7-1.6,7.5-2.5,11.5-3.1c-2.3,2-3.1,4.7-3.9,7.5c-1.3,4.7-3.3,9-7.3,12.1c-4.1,3.2-8.8,4.1-13.8,2.9c-3.2-0.8-5.5-2.8-7-5.8
		c-1.7-3.4-2.1-7-2.1-10.7C1.6,8.6,1.6,8.5,1.7,8.2z M4.8,15.5c-0.1,0-0.1-0.1-0.2-0.1C4.7,15.4,4.8,15.4,4.8,15.5
		c0.1,0.1,0.2,0.3,0.4,0.4c2.6,2.4,5.3,4.7,7,7.9c3.8-5.8,8.2-10.8,13.8-14.6c-5.9,2.4-10.7,6.2-13.9,12c-0.3-0.4-0.6-0.7-0.9-1
		c-1.3-1.2-2.6-2.5-4-3.6C6.5,16.1,5.6,15.9,4.8,15.5z"/>
	<path fill="#FFFFFF" d="M57.5,10.6c-1.1,0-1.9,0-2.8,0c-0.9,0-1.6-0.4-2-1.3c-1.1-2.2-3-2.6-5.1-2.5c-2.2,0.2-3.9,1.2-4.7,3.4
		c-1,2.6-1,5.4,0,8c1.2,3.2,5.1,4.6,8,2.8c0.8-0.5,1.3-1.4,1.9-2.2c0.2-0.3,0.3-0.7,0.4-1.1c1.4,0,2.8,0,4.2,0
		c0.1,3.3-2,6.2-5.3,7.4c-2.4,0.8-4.9,0.9-7.3,0.3c-3.7-0.9-5.8-3.3-6.7-6.9c-0.7-2.8-0.7-5.6,0-8.3c1-4.4,4.1-7,8.6-7.3
		c2.4-0.2,4.7,0,6.9,1.2C56.1,5.4,57.2,7.6,57.5,10.6z"/>
	<path fill="#FFFFFF" d="M120.2,25.2c-1.6,0-3.1,0-4.7,0c0.1-0.3,0.1-0.6,0.2-0.9c2.2-6.2,4.4-12.5,6.7-18.7
		c0.7-1.9,1.1-2.2,3.2-2.2c2.8,0,2.8,0,3.8,2.6c2.2,6,4.3,11.9,6.5,17.9c0.1,0.4,0.3,0.8,0.4,1.4c-1.5,0-2.9,0-4.3,0
		c-0.2,0-0.6-0.4-0.7-0.6c-0.4-1-0.7-2-1-3.1c-0.2-0.5-0.4-0.8-1-0.8c-2.4,0-4.7,0-7.1,0c-0.5,0-0.8,0.2-0.9,0.7
		C121,22.7,120.6,23.9,120.2,25.2z M126,8.1c-0.1,0-0.2,0-0.2,0c-1,2.9-1.9,5.9-2.9,8.9c2.1,0,4,0,6.1,0
		C127.9,13.9,126.9,11,126,8.1z"/>
	<path fill="#FFFFFF" d="M100.4,12.7c0.4-2.5,2.1-4.3,4.7-4.5c1.8-0.2,3.6-0.1,5.3,0.2c2.6,0.5,3.8,2.2,3.8,4.8
		c0,2.2,0.1,4.4-0.1,6.6c-0.3,2.9-1.8,4.7-4.6,5.4c-1.9,0.5-4,0.7-5.9,0.1c-3.3-1-4.8-5-2.9-7.9c0.9-1.4,2.5-1.9,4.1-2.3
		c1-0.2,2-0.3,3-0.5c0.6-0.1,1.3-0.3,1.8-0.6c0.8-0.5,0.7-1.6-0.1-2c-1.3-0.7-3.3-0.5-4.5,0.5c-0.2,0.2-0.5,0.3-0.7,0.3
		c-0.8,0-1.7,0-2.5,0C101.2,12.7,100.8,12.7,100.4,12.7z M110,16.9c-1.3,0.3-2.5,0.6-3.6,0.9c-0.5,0.1-0.9,0.3-1.3,0.5
		c-0.9,0.4-1.1,1.2-1,2.1c0.1,0.9,0.6,1.4,1.5,1.6c2.2,0.5,4.3-0.9,4.5-3.2C110,18.2,110,17.6,110,16.9z"/>
	<path fill="#FFFFFF" d="M66.8,7.9c3.9,0.2,6.3,2.2,7.2,6c0.5,2,0.5,4-0.1,6c-1.3,4.8-5.1,6-8.8,5.5c-3.6-0.6-5.3-2.4-6.1-6
		c-0.4-1.9-0.4-3.7,0-5.6C59.9,9.9,62.7,7.7,66.8,7.9z M62.9,16.6c0.2,1.1,0.3,2.2,0.6,3.2c0.4,1.3,1.3,1.9,2.6,2.1
		c1.2,0.2,2.2-0.4,2.8-1.4c1.2-1.6,1.2-5.7,0.1-7.3c-0.7-1-1.6-1.6-2.8-1.5c-1.3,0.1-2.4,0.7-2.8,2C63.2,14.6,63.1,15.6,62.9,16.6z"
		/>
	<path fill="#FFFFFF" d="M80.1,25.2c-1.6,0-2.9,0-4.4,0c0-0.3-0.1-0.7-0.1-1c0-3,0-6.1,0-9.1c-0.1-5.1,3-7,7.8-7.2
		c0.6,0,1.1,0.1,1.7,0.2c3.6,0.8,5.1,2.4,5.3,6c0.2,3.6,0,7.3,0,11c-0.9,0-1.8,0.1-2.7,0c-1.1-0.2-1.7-1-1.7-2.3c0-2.8,0-5.6,0-8.4
		c0-2.3-2.3-3.7-4.4-2.6c-1.1,0.5-1.4,1.4-1.4,2.6c0,3.2,0,6.4,0,9.6C80.1,24.4,80.1,24.7,80.1,25.2z"/>
	<path fill="#FFFFFF" d="M154.2,8.3c1.4,0,2.7,0,4.3,0c0,0.5,0,1,0,1.5c0,3,0,6,0,9c0,2.1,1.1,3.1,3,3.1c1.9,0,2.9-1.1,2.9-3
		c0-2.6,0-5.1,0-7.7c0-2.4,0.6-3,3-3c0.4,0,0.8,0,1.3,0c0,0.4,0.1,0.7,0.1,1.1c0,3,0,6.1,0,9.1c0,0.5,0,1-0.1,1.6
		c-0.5,3.5-2.7,5.4-6.6,5.4c-1.5,0-3-0.3-4.4-0.8c-2.2-0.7-3.4-2.4-3.5-4.6c-0.2-3.8-0.1-7.7-0.1-11.5C154,8.5,154.1,8.5,154.2,8.3z
		"/>
	<path fill="#FFFFFF" d="M143.8,21.5c2.9,0,5.8,0,8.8,0c0,1.3,0,2.4,0,3.7c-4.9,0-9.6,0-14.5,0c-0.1-1.7-0.3-3.3,1.2-4.8
		c2.7-2.6,5.1-5.5,7.8-8.5c-1,0-1.9,0-2.7,0c-1,0-1.9,0-2.9,0c-2.5,0-3.3-0.9-2.9-3.5c4.5,0,9.1,0,13.8,0c0,1.1,0.1,2.2,0,3.3
		c0,0.3-0.4,0.7-0.6,1c-2.4,2.6-4.9,5.2-7.3,7.8c-0.2,0.3-0.5,0.5-0.7,0.8C143.8,21.3,143.8,21.4,143.8,21.5z"/>
	<path fill="#FFFFFF" d="M99.1,22c0,1.1,0,2.1,0,3.4c-1.7-0.1-3.4-0.1-5.1-0.3c-1.1-0.1-1.6-1-1.8-2c0-0.2-0.1-0.5-0.1-0.7
		c0-6.2,0-12.3,0-18.5c0-0.1,0.1-0.2,0.1-0.4c0.8,0,1.7-0.1,2.5,0c1.1,0.1,1.8,1,1.8,2.2c0,0.9,0,1.7,0,2.7c0.9,0,1.6,0,2.3,0
		c0.5,2-0.1,2.8-2.3,3.2c0,0.6,0,1.2,0,1.8c0,2.2,0,4.5,0,6.7c0,1.6,0.1,1.8,1.8,1.8C98.6,21.9,98.8,21.9,99.1,22z"/>
	<path fill="#FFFFFF" d="M174.6,25.2c-1.5,0-2.8,0-4.3,0c0-7.2,0-14.5,0-21.7c0.1,0,0.2-0.1,0.3-0.1c3.6-0.1,4,0.3,4,3.7
		c-0.1,5.6,0,11.2,0,16.8C174.6,24.3,174.6,24.7,174.6,25.2z"/>
	<path fill="#FFFFFF" d="M4.8,15.4c-0.1,0-0.1-0.1-0.2-0.1C4.7,15.4,4.8,15.4,4.8,15.4L4.8,15.4z"/>
</g>
</svg>
